<?xml version="1.0" encoding="UTF-8" standalone="no"?>
<svg
   version="1.0"
   width="800pt"
   height="400pt"
   viewBox="0 0 800 400"
   preserveAspectRatio="xMidYMid"
   id="svg9"
   sodipodi:docname="logo.svg"
   inkscape:version="1.4.2 (f4327f4, 2025-05-13)"
   xmlns:inkscape="http://www.inkscape.org/namespaces/inkscape"
   xmlns:sodipodi="http://sodipodi.sourceforge.net/DTD/sodipodi-0.dtd"
   xmlns="http://www.w3.org/2000/svg"
   xmlns:svg="http://www.w3.org/2000/svg">
  <defs
     id="defs9" />
  <sodipodi:namedview
     id="namedview9"
     pagecolor="#ffffff"
     bordercolor="#000000"
     borderopacity="0.25"
     inkscape:showpageshadow="2"
     inkscape:pageopacity="0.0"
     inkscape:pagecheckerboard="0"
     inkscape:deskcolor="#d1d1d1"
     inkscape:document-units="pt"
     inkscape:zoom="0.629158"
     inkscape:cx="433.11855"
     inkscape:cy="328.21644"
     inkscape:window-width="1920"
     inkscape:window-height="1009"
     inkscape:window-x="1912"
     inkscape:window-y="-8"
     inkscape:window-maximized="1"
     inkscape:current-layer="g9" />
  <g
     transform="matrix(0.1,0,0,-0.1,0,481)"
     fill="#000000"
     stroke="none"
     id="g9">
    <path
       d="M 119.75836,3652.6634 V 2633.1847 l 242.2917,2.648 240.9677,3.9719 3.97199,414.4115 2.648,413.0875 h 423.67945 423.6795 v 178.7398 178.7398 H 1033.3172 609.63775 v 238.3197 238.3197 h 489.87935 489.8794 v 185.3598 185.3597 H 854.57744 119.75836 Z"
       id="path1"
       style="fill:#2e5159;fill-opacity:1;stroke-width:1.324"
       sodipodi:nodetypes="ccccccccccccccccccccc" />
    <path
       d="m 2224.9157,4611.2382 c -14.564,-33.0999 -26.48,-62.228 -26.48,-64.8759 0,-7.9441 -587.8552,-1482.8782 -676.5631,-1698.6899 -43.692,-103.2719 -78.1159,-194.6278 -78.1159,-201.2477 0,-9.2681 87.3838,-11.916 246.2637,-10.592 l 246.2637,3.9719 68.8479,185.3599 68.848,185.3597 405.1434,3.9719 405.1436,2.648 48.9878,-128.4277 c 26.48,-71.496 58.256,-156.2319 71.496,-189.3318 l 22.508,-59.58 247.5876,-3.9719 c 146.9638,-1.324 247.5877,1.3239 247.5877,9.268 0,6.6199 -45.016,127.1037 -100.6239,268.7717 -54.2839,140.3437 -127.1038,324.3795 -158.8798,407.7914 -108.5679,275.3916 -219.7837,557.4033 -376.0155,953.2788 l -154.9078,390.5795 -240.9677,3.972 -240.9677,2.648 z m 405.1435,-856.6269 135.0478,-373.3676 -272.7436,-3.972 c -149.6119,-1.324 -274.0676,0 -278.0396,2.6481 -7.944,7.9439 263.4756,749.383 274.0676,749.383 3.972,0 68.8479,-168.1478 141.6678,-374.6915 z"
       id="path2"
       style="fill:#2e5159;fill-opacity:1;stroke-width:1.324" />
    <path
       d="M 3734.2738,3653.9874 V 2633.1847 h 238.3198 238.3196 v 364.0995 365.4235 l 160.2039,-3.972 161.5277,-3.9719 214.4878,-357.4796 214.4877,-357.4796 266.1237,-3.9719 c 146.9638,-1.324 267.4476,0 267.4476,3.9719 0,6.6201 -29.1279,52.9599 -325.7035,529.5994 -90.0319,145.6398 -164.1758,268.7716 -164.1758,274.0677 0,3.972 34.4239,29.1279 76.7919,55.6079 152.2598,92.6799 239.6437,211.8397 274.0676,374.6915 66.1999,309.8156 -52.9599,585.2072 -301.8716,704.3672 -176.0918,83.4118 -190.6558,84.7358 -779.8351,90.0319 l -540.1913,5.2959 z m 1000.9428,619.6312 c 94.0038,-47.664 141.6678,-121.8078 148.2878,-229.0517 6.62,-94.0039 -19.86,-160.2038 -90.0318,-231.6997 -63.552,-63.552 -145.6399,-80.7639 -379.9876,-80.7639 h -202.5718 v 282.0116 c 0,156.2318 3.9721,287.3077 10.592,292.6037 5.2961,6.62 108.5679,7.9439 229.0517,5.296 202.5718,-3.972 223.7557,-6.6201 284.6597,-38.396 z"
       id="path3"
       style="fill:#2e5159;fill-opacity:1;stroke-width:1.324" />
    <path
       d="m 5729.5393,4653.6061 c -3.9719,-10.5919 -6.6199,-468.6954 -5.2959,-1016.8307 l 2.648,-996.9708 229.0517,-3.9719 229.0517,-2.648 -3.972,642.1392 c -2.648,353.5075 -1.324,642.1391 2.6479,642.1391 3.9721,0 123.1319,-234.3477 266.1237,-520.3313 l 260.8277,-519.0073 91.3559,-3.9721 92.6799,-3.972 70.1719,142.9919 c 201.2478,406.4675 410.4395,839.4149 410.4395,848.6829 0,6.6201 7.9439,22.508 18.5359,35.748 15.8881,22.508 17.2121,-60.904 10.592,-583.8832 -3.9719,-336.2957 -2.6479,-626.2513 2.648,-644.7872 l 7.9441,-35.748 h 225.0796 225.0798 v 1019.4787 1019.4787 l -272.7436,-2.648 -272.7437,-3.972 -230.3757,-476.6394 C 6962.1818,3926.731 6844.346,3683.1153 6827.1339,3646.0434 l -31.7759,-64.876 -94.0038,195.9519 c -51.636,108.5678 -94.004,198.5997 -94.004,199.9237 0,2.648 -63.5519,133.7238 -140.3438,292.6036 -76.7918,160.2038 -152.2597,315.1116 -165.4997,346.8876 l -23.832,55.6079 H 6006.255 c -222.4318,0 -271.4196,-3.9719 -276.7157,-18.536 z"
       id="path4"
       style="fill:#2e5159;fill-opacity:1;stroke-width:1.324" />
    <path
       d="m 5051.6522,2278.3531 c -3.972,-3.972 -6.62,-307.1677 -6.62,-673.9152 V 938.4667 h 112.5399 112.5399 v 668.6192 668.6192 l -75.468,1.324 c -42.368,1.324 -90.0318,3.972 -105.9198,5.2959 -15.8881,1.3241 -33.1,0 -37.072,-3.9719 z"
       id="path5"
       style="fill:#2e5159;fill-opacity:1;stroke-width:1.324" />
    <path
       d="m 2129.5878,2157.8693 -103.2718,-21.184 v -121.8078 -123.1319 l -62.228,-1.324 c -35.7479,-1.324 -68.8478,-2.648 -76.7919,-5.296 -6.6199,-1.324 -21.184,-3.972 -30.4519,-3.972 -11.916,-2.648 -15.8881,-25.156 -13.24,-84.7359 l 3.972,-83.4119 88.7079,-3.972 87.3839,-3.972 5.296,-293.9276 c 3.9719,-270.0957 6.62,-297.8996 33.1,-346.8876 52.9599,-99.29988 137.6957,-139.01978 295.2516,-139.01978 129.7518,0 225.0797,30.45193 225.0797,71.49588 0,27.804 -37.072,153.5838 -46.34,153.5838 -1.324,0 -21.1839,-9.268 -41.0439,-19.86 -21.184,-10.592 -70.1719,-19.8599 -108.5679,-19.8599 -56.932,0 -76.7919,6.6199 -101.9478,33.0999 -33.1,31.776 -33.1,33.1 -33.1,296.5756 v 264.7997 l 149.6118,3.972 148.2879,3.972 3.9719,82.0879 3.972,80.7639 -52.9599,9.268 c -29.128,5.296 -64.8759,5.296 -80.7639,0 -14.564,-3.972 -59.58,-3.972 -99.2999,0 l -72.8199,9.2679 v 144.3159 c 0,79.4399 -3.972,142.9918 -9.268,142.9918 -6.62,-1.3239 -56.932,-11.9159 -112.5399,-23.8319 z"
       id="path6"
       sodipodi:nodetypes="cccccccccccccssscscscccccccccscc"
       style="fill:#2e5159;fill-opacity:1;stroke-width:1.324" />
    <path
       d="m 3078.8947,1891.7456 c -156.2319,-31.776 -296.5756,-145.6398 -352.1836,-284.6597 -43.6919,-111.2159 -43.6919,-284.6596 0,-394.5515 37.0719,-92.6799 139.0198,-202.5717 233.0237,-247.58768 59.5799,-30.45193 83.4119,-33.09996 231.6997,-33.09996 148.2879,0 172.1198,2.64803 231.6997,33.09996 244.9397,119.15978 340.2676,419.70748 217.1357,680.53518 -87.3839,188.0078 -328.3515,292.6036 -561.3752,246.2637 z m 225.0797,-197.2758 c 64.8759,-29.1279 131.0758,-101.9478 152.2598,-168.1477 26.48,-76.792 10.592,-217.1358 -31.776,-288.6318 -104.5959,-177.4157 -370.7195,-176.0917 -470.0194,3.9721 -46.34,84.7359 -52.9599,213.1637 -14.5639,301.8716 15.8879,37.072 42.3679,79.4399 58.2558,95.3279 82.088,78.1159 207.8679,100.6238 305.8437,55.6079 z"
       id="path7"
       sodipodi:nodetypes="ccccscccccccccc"
       style="fill:#2e5159;fill-opacity:1;stroke-width:1.324" />
    <path
       d="m 4184.4332,1885.1256 c -71.4958,-21.184 -152.2597,-63.5519 -206.5437,-108.5679 -129.7518,-111.2158 -185.3597,-342.9155 -125.7798,-532.2473 55.6079,-178.7398 191.9797,-288.63165 394.5515,-319.08358 264.7997,-41.04403 495.1754,94.00378 565.3473,330.99958 59.58,199.9237 -6.6199,425.0035 -157.5558,540.1913 -121.8079,92.6799 -320.4076,129.7518 -470.0195,88.7079 z m 248.9118,-186.6838 c 64.8759,-26.48 119.1598,-79.4399 149.6118,-144.3158 34.4239,-75.4679 34.4239,-218.4597 -2.648,-293.9277 -83.4119,-170.7957 -308.4916,-210.5157 -442.2154,-78.1158 -148.2879,148.2878 -100.6239,435.5954 86.0598,516.3593 60.9039,26.48 146.9639,26.48 209.1918,0 z"
       id="path8"
       style="fill:#2e5159;fill-opacity:1;stroke-width:1.324" />
    <path
       d="m 5791.7673,1891.7456 c -70.1719,-14.564 -174.7679,-67.5239 -213.1637,-108.5679 -38.3961,-41.0439 -70.172,-117.8358 -70.172,-172.1198 0,-70.1719 50.312,-154.9078 115.1879,-197.2757 55.6079,-34.424 211.8398,-76.7919 360.1275,-97.976 116.5119,-15.8879 174.7679,-70.1718 148.2878,-137.6957 -22.5079,-52.9599 -63.5518,-71.496 -176.0917,-78.1159 -116.5119,-6.6201 -250.2358,26.48 -333.6476,83.4118 -26.48,18.5361 -50.3119,33.1 -52.9599,33.1 -2.648,0 -25.156,-33.1 -51.636,-72.8199 l -48.9879,-71.496 43.6919,-31.7759 c 62.2279,-47.6639 112.5399,-70.17183 206.5437,-95.32783 101.9479,-26.48002 299.2237,-26.48002 393.2276,-1.32402 142.9918,38.39601 243.6157,145.63985 243.6157,260.82765 0,162.8518 -103.2719,251.5597 -340.2675,289.9556 -164.1759,26.48 -222.4318,42.3681 -251.5598,70.172 -41.0439,35.748 -38.3959,90.0319 3.972,129.7518 30.452,29.128 45.016,31.776 162.8518,31.776 117.8359,0 135.0478,-3.972 214.4878,-42.368 96.6518,-47.6639 104.5958,-50.3119 104.5958,-30.4519 0,7.9439 15.888,38.396 34.4239,68.8479 34.424,52.9599 34.424,55.6079 10.592,74.1439 -117.8358,87.3839 -333.6476,128.4279 -503.1193,95.3279 z"
       id="path9"
       style="fill:#2e5159;fill-opacity:1;stroke-width:1.324" />
  </g>
</svg>
